<svg width="71" height="71" viewBox="0 0 71 71" fill="none" xmlns="http://www.w3.org/2000/svg">
    <path d="M55.2601 50.455L50.4549 55.2602C49.7875 55.9276 48.9866 56.2613 48.0522 56.2613C47.1179 56.2613 46.317 55.9276 45.6496 55.2602L35.2383 44.8489L24.8269 55.2602C24.1595 55.9276 23.3587 56.2613 22.4243 56.2613C21.49 56.2613 20.6891 55.9276 20.0217 55.2602L15.2165 50.455C14.5491 49.7876 14.2154 48.9867 14.2154 48.0524C14.2154 47.118 14.5491 46.3171 15.2165 45.6498L25.6278 35.2384L15.2165 24.8271C14.5491 24.1597 14.2154 23.3588 14.2154 22.4244C14.2154 21.4901 14.5491 20.6892 15.2165 20.0218L20.0217 15.2166C20.6891 14.5492 21.49 14.2155 22.4243 14.2155C23.3587 14.2155 24.1595 14.5492 24.8269 15.2166L35.2383 25.6279L45.6496 15.2166C46.317 14.5492 47.1179 14.2155 48.0522 14.2155C48.9866 14.2155 49.7875 14.5492 50.4549 15.2166L55.2601 20.0218C55.9275 20.6892 56.2612 21.4901 56.2612 22.4244C56.2612 23.3588 55.9275 24.1597 55.2601 24.8271L44.8488 35.2384L55.2601 45.6498C55.9275 46.3171 56.2612 47.118 56.2612 48.0524C56.2612 48.9867 55.9275 49.7876 55.2601 50.455Z" fill="#F53455"/>
</svg>
