<svg width="52" height="40" viewBox="0 0 52 40" fill="none" xmlns="http://www.w3.org/2000/svg">
    <path d="M19.9277 40C20.7665 40 21.6052 39.6633 22.209 39.0572L26.7716 34.4781L51.0606 10.101C51.6645 9.49495 52 8.6532 52 7.81145C52 6.9697 51.6645 6.12795 51.0606 5.52189L46.4981 0.942761C45.8942 0.3367 45.0555 0 44.2168 0C43.3781 0 42.5394 0.3367 41.9355 0.942761L19.9277 23.064L10.0645 13.1313C9.46064 12.5253 8.62194 12.1886 7.78323 12.1886C6.94452 12.1886 6.10581 12.5253 5.50194 13.1313L0.939355 17.7104C0.335484 18.3165 0 19.1582 0 20C0 20.8418 0.335484 21.6835 0.939355 22.2896L13.0839 34.4781L17.6465 39.0572C18.2503 39.6633 19.089 40 19.9277 40Z" fill="#57B3FF"/>
</svg>
